<?xml version="1.0" encoding="utf-8"?>
<!-- Generator: Adobe Illustrator 16.0.0, SVG Export Plug-In . SVG Version: 6.00 Build 0)  -->
<!DOCTYPE svg PUBLIC "-//W3C//DTD SVG 1.1//EN" "http://www.w3.org/Graphics/SVG/1.1/DTD/svg11.dtd">
<svg version="1.1" id="Capa_1" xmlns="http://www.w3.org/2000/svg" xmlns:xlink="http://www.w3.org/1999/xlink" x="0px" y="0px"
	 width="437px" height="154px" viewBox="0 0 437 154" enable-background="new 0 0 437 154" xml:space="preserve">
<g>
	<linearGradient id="SVGID_1_" gradientUnits="userSpaceOnUse" x1="39.4248" y1="18.7949" x2="39.4248" y2="134.4292">
		<stop  offset="0" style="stop-color:#7A004A"/>
		<stop  offset="0.1224" style="stop-color:#91074A"/>
		<stop  offset="0.4065" style="stop-color:#C01649"/>
		<stop  offset="0.6578" style="stop-color:#E22148"/>
		<stop  offset="0.8641" style="stop-color:#F72848"/>
		<stop  offset="1" style="stop-color:#FF2A48"/>
	</linearGradient>
	<path fill="#FFFFFF" stroke="url(#SVGID_1_)" stroke-width="2" stroke-miterlimit="10" d="M4.527,128.143V25.082
		c0-1.452,0.7-2.694,2.097-3.73c1.4-1.035,3.134-1.557,5.21-1.557h27.514c10.57,0,19.042,2.799,25.415,8.395
		c6.372,5.597,9.559,14.355,9.559,26.27v44.305c0,11.917-3.187,20.674-9.559,26.269c-6.373,5.597-14.845,8.396-25.415,8.396H11.834
		c-2.076,0-3.81-0.517-5.21-1.554C5.227,130.839,4.527,129.595,4.527,128.143z M21.005,118.817h18.343
		c12.332,0,18.498-6.685,18.498-20.052V54.459c0-13.367-6.167-20.051-18.498-20.051H21.005V118.817z"/>
	<linearGradient id="SVGID_2_" gradientUnits="userSpaceOnUse" x1="101.8369" y1="18.7949" x2="101.8369" y2="134.4292">
		<stop  offset="0" style="stop-color:#7A004A"/>
		<stop  offset="0.1224" style="stop-color:#91074A"/>
		<stop  offset="0.4065" style="stop-color:#C01649"/>
		<stop  offset="0.6578" style="stop-color:#E22148"/>
		<stop  offset="0.8641" style="stop-color:#F72848"/>
		<stop  offset="1" style="stop-color:#FF2A48"/>
	</linearGradient>
	<path fill="#FFFFFF" stroke="url(#SVGID_2_)" stroke-width="2" stroke-miterlimit="10" d="M93.598,127.988V25.082
		c0-1.762,0.802-3.082,2.409-3.963c1.605-0.881,3.548-1.323,5.831-1.323c2.278,0,4.22,0.442,5.828,1.323
		c1.605,0.881,2.41,2.201,2.41,3.963v102.907c0,1.66-0.805,2.98-2.41,3.965c-1.607,0.985-3.55,1.476-5.828,1.476
		c-2.175,0-4.097-0.491-5.752-1.476C94.427,130.968,93.598,129.648,93.598,127.988z"/>
	<linearGradient id="SVGID_3_" gradientUnits="userSpaceOnUse" x1="159.7407" y1="18.3281" x2="159.7407" y2="135.6719">
		<stop  offset="0" style="stop-color:#7A004A"/>
		<stop  offset="0.1224" style="stop-color:#91074A"/>
		<stop  offset="0.4065" style="stop-color:#C01649"/>
		<stop  offset="0.6578" style="stop-color:#E22148"/>
		<stop  offset="0.8641" style="stop-color:#F72848"/>
		<stop  offset="1" style="stop-color:#FF2A48"/>
	</linearGradient>
	<path fill="#FFFFFF" stroke="url(#SVGID_3_)" stroke-width="2" stroke-miterlimit="10" d="M124.843,116.331
		c0-1.968,0.724-3.938,2.176-5.908c1.448-1.967,3.109-2.953,4.975-2.953c1.138,0,2.511,0.665,4.118,1.994
		c1.606,1.327,3.188,2.761,4.744,4.301c1.551,1.542,3.908,2.975,7.072,4.304c3.16,1.33,6.707,1.993,10.648,1.993
		c5.909,0,10.646-1.407,14.223-4.219c3.573-2.812,5.363-6.931,5.363-12.348c0-5-1.737-9.167-5.207-12.503
		c-3.474-3.333-7.67-5.989-12.592-7.972c-4.923-1.978-9.872-4.114-14.846-6.406c-4.975-2.294-9.198-5.73-12.67-10.317
		c-3.473-4.583-5.207-10.314-5.207-17.192c0-5.479,1.064-10.235,3.188-14.267c2.121-4.032,4.998-7.132,8.625-9.305
		c3.629-2.172,7.438-3.748,11.429-4.729c3.985-0.98,8.209-1.475,12.668-1.475c2.795,0,5.723,0.181,8.78,0.54
		c3.056,0.36,6.087,0.947,9.094,1.768c3.006,0.822,5.493,1.998,7.46,3.537c1.971,1.538,2.954,3.279,2.954,5.227
		c0,1.948-0.619,3.911-1.863,5.89c-1.244,1.981-2.904,2.967-4.978,2.967c-1.035,0-2.432-0.491-4.194-1.482
		c-1.763-0.991-4.12-1.979-7.071-2.972c-2.956-0.989-6.349-1.484-10.182-1.484c-5.909,0-10.625,1.173-14.146,3.517
		c-3.524,2.349-5.285,5.918-5.285,10.707c0,3.126,0.934,5.81,2.797,8.049c1.868,2.241,4.276,4.09,7.229,5.548
		c2.953,1.461,6.243,2.894,9.87,4.3c3.625,1.405,7.229,3.045,10.804,4.919c3.577,1.876,6.841,4.039,9.794,6.489
		c2.953,2.448,5.362,5.808,7.226,10.079c1.866,4.274,2.8,9.224,2.8,14.85c0,10.708-3.241,18.871-9.715,24.48
		c-6.479,5.612-15.056,8.416-25.728,8.416c-9.536,0-17.644-1.994-24.326-5.984C128.185,124.7,124.843,120.581,124.843,116.331z"/>
	<linearGradient id="SVGID_4_" gradientUnits="userSpaceOnUse" x1="244.2271" y1="18.7949" x2="244.2271" y2="134.4292">
		<stop  offset="0" style="stop-color:#7A004A"/>
		<stop  offset="0.1224" style="stop-color:#91074A"/>
		<stop  offset="0.4065" style="stop-color:#C01649"/>
		<stop  offset="0.6578" style="stop-color:#E22148"/>
		<stop  offset="0.8641" style="stop-color:#F72848"/>
		<stop  offset="1" style="stop-color:#FF2A48"/>
	</linearGradient>
	<path fill="#FFFFFF" stroke="url(#SVGID_4_)" stroke-width="2" stroke-miterlimit="10" d="M210.185,127.988V25.236
		c0-1.657,0.723-2.978,2.174-3.964c1.451-0.983,3.163-1.477,5.132-1.477h55.338c1.763,0,3.109,0.726,4.042,2.178
		c0.933,1.454,1.398,3.109,1.398,4.973c0,2.075-0.492,3.837-1.477,5.287c-0.984,1.451-2.308,2.176-3.963,2.176h-46.167v35.598H250.6
		c1.656,0,2.978,0.648,3.964,1.944c0.982,1.296,1.477,2.875,1.477,4.738c0,1.661-0.466,3.137-1.4,4.432
		c-0.93,1.296-2.279,1.942-4.041,1.942h-23.938v35.754h46.167c1.655,0,2.979,0.726,3.963,2.176c0.985,1.454,1.477,3.213,1.477,5.286
		c0,1.864-0.465,3.525-1.398,4.973c-0.933,1.453-2.279,2.178-4.042,2.178h-55.338c-1.97,0-3.681-0.491-5.132-1.476
		C210.908,130.968,210.185,129.648,210.185,127.988z"/>
	<linearGradient id="SVGID_5_" gradientUnits="userSpaceOnUse" x1="322.4165" y1="18.7949" x2="322.4165" y2="134.4292">
		<stop  offset="0" style="stop-color:#7A004A"/>
		<stop  offset="0.1224" style="stop-color:#91074A"/>
		<stop  offset="0.4065" style="stop-color:#C01649"/>
		<stop  offset="0.6578" style="stop-color:#E22148"/>
		<stop  offset="0.8641" style="stop-color:#F72848"/>
		<stop  offset="1" style="stop-color:#FF2A48"/>
	</linearGradient>
	<path fill="#FFFFFF" stroke="url(#SVGID_5_)" stroke-width="2" stroke-miterlimit="10" d="M291.481,127.988V25.082
		c0-1.762,0.803-3.082,2.409-3.963c1.607-0.881,3.55-1.323,5.832-1.323c2.279,0,4.221,0.442,5.828,1.323
		c1.606,0.881,2.409,2.201,2.409,3.963v93.735h40.417c1.556,0,2.771,0.726,3.654,2.176c0.878,1.454,1.322,3.163,1.322,5.13
		c0,1.97-0.443,3.68-1.322,5.128c-0.883,1.453-2.098,2.178-3.654,2.178h-49.586c-1.97,0-3.68-0.491-5.133-1.476
		C292.206,130.968,291.481,129.648,291.481,127.988z"/>
	<linearGradient id="SVGID_6_" gradientUnits="userSpaceOnUse" x1="397.5752" y1="18.7949" x2="397.5752" y2="135.3623">
		<stop  offset="0" style="stop-color:#7A004A"/>
		<stop  offset="0.1224" style="stop-color:#91074A"/>
		<stop  offset="0.4065" style="stop-color:#C01649"/>
		<stop  offset="0.6578" style="stop-color:#E22148"/>
		<stop  offset="0.8641" style="stop-color:#F72848"/>
		<stop  offset="1" style="stop-color:#FF2A48"/>
	</linearGradient>
	<path fill="#FFFFFF" stroke="url(#SVGID_6_)" stroke-width="2" stroke-miterlimit="10" d="M362.678,99.697V54.459
		c0-11.915,3.162-20.673,9.482-26.27c6.321-5.595,14.769-8.395,25.338-8.395c10.571,0,19.043,2.799,25.414,8.395
		c6.375,5.597,9.562,14.355,9.562,26.27v45.237c0,11.917-3.187,20.674-9.562,26.271c-6.37,5.595-14.842,8.395-25.414,8.395
		c-10.569,0-19.017-2.799-25.338-8.395C365.839,120.371,362.678,111.614,362.678,99.697z M379.155,99.697
		c0,13.369,6.113,20.052,18.342,20.052c5.909,0,10.468-1.656,13.681-4.973c3.211-3.316,4.818-8.342,4.818-15.079V54.459
		c0-6.735-1.607-11.759-4.818-15.078c-3.213-3.314-7.772-4.973-13.681-4.973c-12.229,0-18.342,6.685-18.342,20.051V99.697z"/>
</g>
<g>
</g>
<g>
</g>
<g>
</g>
<g>
</g>
<g>
</g>
<g>
</g>
<g>
</g>
<g>
</g>
<g>
</g>
<g>
</g>
<g>
</g>
<g>
</g>
<g>
</g>
<g>
</g>
<g>
</g>
</svg>
