<?xml version="1.0" standalone="no"?>
<!DOCTYPE svg PUBLIC "-//W3C//DTD SVG 20010904//EN"
 "http://www.w3.org/TR/2001/REC-SVG-20010904/DTD/svg10.dtd">
<svg version="1.0" xmlns="http://www.w3.org/2000/svg"
 width="300.000000pt" height="300.000000pt" viewBox="0 0 300.000000 300.000000"
 preserveAspectRatio="xMidYMid meet">
<metadata>
Created by potrace 1.11, written by Peter Selinger 2001-2013
</metadata>
<g transform="translate(0.000000,300.000000) scale(0.100000,-0.100000)"
fill="#000000" stroke="none">
<path d="M778 2919 c-54 -8 -95 -28 -128 -64 l-25 -27 0 -1328 0 -1329 29 -30
c59 -62 75 -64 509 -64 429 0 511 5 622 33 245 63 416 195 508 391 26 56 61
171 73 239 9 55 12 1410 3 1479 -14 101 -19 122 -45 201 -95 283 -351 466
-696 496 -106 9 -790 11 -850 3z m866 -396 c83 -21 130 -46 180 -97 54 -53 92
-132 110 -223 18 -98 19 -1293 1 -1400 -33 -185 -133 -291 -316 -332 -21 -5
-158 -10 -303 -10 l-264 -2 0 1041 0 1041 266 -2 c200 -1 280 -5 326 -16z"/>
</g>
</svg>
