<?xml version="1.0" standalone="no"?>
<!DOCTYPE svg PUBLIC "-//W3C//DTD SVG 20010904//EN"
 "http://www.w3.org/TR/2001/REC-SVG-20010904/DTD/svg10.dtd">
<svg version="1.0" xmlns="http://www.w3.org/2000/svg"
 width="700.000000pt" height="700.000000pt" viewBox="0 0 700.000000 700.000000"
 preserveAspectRatio="xMidYMid meet">
<metadata>
Created by potrace 1.11, written by Peter Selinger 2001-2013
</metadata>
<g transform="translate(0.000000,700.000000) scale(0.100000,-0.100000)"
fill="#000000" stroke="none">
<path d="M3275 6994 c-744 -60 -1391 -311 -1955 -758 -148 -118 -424 -391
-536 -531 -441 -551 -684 -1143 -766 -1860 -16 -141 -16 -548 0 -690 39 -349
112 -645 229 -940 130 -327 306 -630 529 -910 114 -142 389 -417 529 -528 548
-435 1164 -686 1855 -759 148 -15 532 -15 680 0 691 73 1307 324 1855 759 140
111 415 386 529 528 381 478 628 1029 725 1615 36 218 45 339 45 580 0 308
-28 553 -94 825 -125 510 -347 959 -684 1380 -112 140 -388 413 -536 531 -510
404 -1087 648 -1740 735 -140 19 -543 33 -665 23z m416 -1184 c438 -44 768
-206 972 -475 159 -212 237 -460 257 -820 13 -224 13 -1835 0 -2040 -17 -279
-56 -447 -147 -632 -178 -363 -537 -589 -1031 -648 -105 -13 -244 -15 -797
-13 l-670 3 -55 26 c-62 30 -102 65 -127 112 -17 30 -18 148 -18 2167 1 1174
4 2147 8 2162 16 61 102 132 187 154 58 16 1268 19 1421 4z"/>
<path d="M2750 3499 l0 -1720 463 3 c438 4 466 5 540 26 129 36 203 77 288
162 60 59 85 93 117 160 92 191 92 198 92 1380 0 1085 -2 1120 -54 1270 -68
198 -187 322 -372 389 -124 45 -197 51 -655 51 l-419 0 0 -1721z"/>
</g>
</svg>
